<svg width="32" height="32" viewBox="0 0 32 32" fill="none" xmlns="http://www.w3.org/2000/svg">
  <!-- Background circle -->
  <circle cx="16" cy="16" r="15" fill="#10B981" stroke="#10B981" stroke-width="2"/>
  
  <!-- Magnifying glass -->
  <path d="M14 8C10.13 8 7 11.13 7 15C7 18.87 10.13 22 14 22C15.5 22 16.87 21.5 17.94 20.69L22.5 25.25L23.91 23.84L19.35 19.28C20.16 18.21 20.66 16.84 20.66 15.34C20.66 11.47 17.53 8.34 13.66 8.34C10.13 8.34 7.13 10.84 6.34 14.17L8.34 14.5C8.94 12.17 11.17 10.34 13.66 10.34C16.42 10.34 18.66 12.58 18.66 15.34C18.66 18.1 16.42 20.34 13.66 20.34C11.17 20.34 8.94 18.51 8.34 16.18L6.34 16.51C7.13 19.84 10.13 22.34 13.66 22.34C17.53 22.34 20.66 19.21 20.66 15.34C20.66 11.47 17.53 8.34 13.66 8.34Z" fill="white"/>
  
  <!-- SEO text indicator -->
  <text x="16" y="28" text-anchor="middle" font-family="Arial, sans-serif" font-size="6" font-weight="bold" fill="white">SEO</text>
</svg>
